<mxfile host="app.diagrams.net" modified="2023-05-21T14:34:33.969Z" agent="Mozilla/5.0 (Macintosh; Intel Mac OS X 10_15_7) AppleWebKit/537.36 (KHTML, like Gecko) Chrome/113.0.0.0 Safari/537.36" etag="t0f4mTvErqG-bio3vk1l" version="21.2.9" type="device">
  <diagram name="Page-1" id="b5b7bab2-c9e2-2cf4-8b2a-24fd1a2a6d21">
    <mxGraphModel dx="-70" dy="445" grid="1" gridSize="10" guides="1" tooltips="1" connect="1" arrows="1" fold="1" page="1" pageScale="1" pageWidth="827" pageHeight="1169" background="none" math="0" shadow="0">
      <root>
        <mxCell id="0" />
        <mxCell id="1" parent="0" />
        <mxCell id="iJmK3isDiLZy_JNT2nU3-1" value="일반 회원" style="shape=umlActor;verticalLabelPosition=bottom;verticalAlign=top;html=1;outlineConnect=0;" parent="1" vertex="1">
          <mxGeometry x="860" y="149" width="30" height="60" as="geometry" />
        </mxCell>
        <mxCell id="iJmK3isDiLZy_JNT2nU3-2" value="" style="endArrow=none;html=1;rounded=0;" parent="1" edge="1">
          <mxGeometry width="50" height="50" relative="1" as="geometry">
            <mxPoint x="896" y="171" as="sourcePoint" />
            <mxPoint x="1016" y="169" as="targetPoint" />
          </mxGeometry>
        </mxCell>
        <mxCell id="iJmK3isDiLZy_JNT2nU3-4" value=":SearchUi" style="html=1;whiteSpace=wrap;" parent="1" vertex="1">
          <mxGeometry x="1020" y="149" width="110" height="50" as="geometry" />
        </mxCell>
        <mxCell id="iJmK3isDiLZy_JNT2nU3-6" value=":Search" style="html=1;whiteSpace=wrap;" parent="1" vertex="1">
          <mxGeometry x="1350" y="149" width="110" height="50" as="geometry" />
        </mxCell>
        <mxCell id="iJmK3isDiLZy_JNT2nU3-7" value="" style="endArrow=none;html=1;rounded=0;entryX=-0.005;entryY=0.438;entryDx=0;entryDy=0;entryPerimeter=0;exitX=0.995;exitY=0.404;exitDx=0;exitDy=0;exitPerimeter=0;" parent="1" edge="1" target="iJmK3isDiLZy_JNT2nU3-6" source="iJmK3isDiLZy_JNT2nU3-4">
          <mxGeometry width="50" height="50" relative="1" as="geometry">
            <mxPoint x="1127" y="167" as="sourcePoint" />
            <mxPoint x="1247" y="165" as="targetPoint" />
          </mxGeometry>
        </mxCell>
        <mxCell id="iJmK3isDiLZy_JNT2nU3-8" value="회사 이름 검색" style="shape=umlFrame;whiteSpace=wrap;html=1;pointerEvents=0;width=90;height=30;" parent="1" vertex="1">
          <mxGeometry x="850" y="79" width="700" height="360" as="geometry" />
        </mxCell>
        <mxCell id="iJmK3isDiLZy_JNT2nU3-10" value="" style="endArrow=none;html=1;rounded=0;exitX=0.5;exitY=0;exitDx=0;exitDy=0;entryX=0.5;entryY=1;entryDx=0;entryDy=0;" parent="1" target="iJmK3isDiLZy_JNT2nU3-6" edge="1">
          <mxGeometry width="50" height="50" relative="1" as="geometry">
            <mxPoint x="1405" y="329" as="sourcePoint" />
            <mxPoint x="1268" y="199" as="targetPoint" />
          </mxGeometry>
        </mxCell>
        <mxCell id="iJmK3isDiLZy_JNT2nU3-12" value="" style="endArrow=classic;html=1;rounded=0;" parent="1" edge="1">
          <mxGeometry width="50" height="50" relative="1" as="geometry">
            <mxPoint x="1180" y="319" as="sourcePoint" />
            <mxPoint x="1180" y="319" as="targetPoint" />
          </mxGeometry>
        </mxCell>
        <mxCell id="iJmK3isDiLZy_JNT2nU3-16" value="" style="endArrow=classic;html=1;rounded=0;" parent="1" edge="1">
          <mxGeometry width="50" height="50" relative="1" as="geometry">
            <mxPoint x="1370" y="224" as="sourcePoint" />
            <mxPoint x="1370" y="290" as="targetPoint" />
          </mxGeometry>
        </mxCell>
        <mxCell id="iJmK3isDiLZy_JNT2nU3-17" value="2.1.1 *[For companyName == input]:&lt;br&gt;getRecruitmentInfo()" style="text;html=1;align=center;verticalAlign=middle;resizable=0;points=[];autosize=1;strokeColor=none;fillColor=none;" parent="1" vertex="1">
          <mxGeometry x="1140" y="250" width="220" height="40" as="geometry" />
        </mxCell>
        <mxCell id="iJmK3isDiLZy_JNT2nU3-18" value="" style="endArrow=classic;html=1;rounded=0;" parent="1" edge="1">
          <mxGeometry width="50" height="50" relative="1" as="geometry">
            <mxPoint x="1292.5" y="190.44" as="sourcePoint" />
            <mxPoint x="1207.5" y="190.44" as="targetPoint" />
            <Array as="points">
              <mxPoint x="1237.5" y="190.44" />
            </Array>
          </mxGeometry>
        </mxCell>
        <mxCell id="iJmK3isDiLZy_JNT2nU3-19" value="1 startInterface()" style="text;html=1;align=center;verticalAlign=middle;resizable=0;points=[];autosize=1;strokeColor=none;fillColor=none;" parent="1" vertex="1">
          <mxGeometry x="1195" y="191" width="110" height="30" as="geometry" />
        </mxCell>
        <mxCell id="iJmK3isDiLZy_JNT2nU3-20" value="" style="endArrow=classic;html=1;rounded=0;" parent="1" edge="1">
          <mxGeometry width="50" height="50" relative="1" as="geometry">
            <mxPoint x="910" y="159" as="sourcePoint" />
            <mxPoint x="995" y="159" as="targetPoint" />
            <Array as="points">
              <mxPoint x="940" y="159" />
            </Array>
          </mxGeometry>
        </mxCell>
        <mxCell id="iJmK3isDiLZy_JNT2nU3-21" value="2 searchRecruitmentInfoByCompanyName()" style="text;html=1;align=center;verticalAlign=middle;resizable=0;points=[];autosize=1;strokeColor=none;fillColor=none;" parent="1" vertex="1">
          <mxGeometry x="835" y="111" width="260" height="30" as="geometry" />
        </mxCell>
        <mxCell id="iJmK3isDiLZy_JNT2nU3-22" value="2.1 showRecruitmentInfoByCompanyName()" style="text;html=1;align=center;verticalAlign=middle;resizable=0;points=[];autosize=1;strokeColor=none;fillColor=none;" parent="1" vertex="1">
          <mxGeometry x="1105" y="100" width="260" height="30" as="geometry" />
        </mxCell>
        <mxCell id="iJmK3isDiLZy_JNT2nU3-23" value="" style="endArrow=classic;html=1;rounded=0;" parent="1" edge="1">
          <mxGeometry width="50" height="50" relative="1" as="geometry">
            <mxPoint x="1200" y="148.44" as="sourcePoint" />
            <mxPoint x="1285" y="148.44" as="targetPoint" />
            <Array as="points">
              <mxPoint x="1230" y="148.44" />
            </Array>
          </mxGeometry>
        </mxCell>
        <mxCell id="iJmK3isDiLZy_JNT2nU3-77" value="일반 회원" style="shape=umlActor;verticalLabelPosition=bottom;verticalAlign=top;html=1;outlineConnect=0;" parent="1" vertex="1">
          <mxGeometry x="870" y="620" width="30" height="60" as="geometry" />
        </mxCell>
        <mxCell id="iJmK3isDiLZy_JNT2nU3-78" value="" style="endArrow=none;html=1;rounded=0;" parent="1" edge="1">
          <mxGeometry width="50" height="50" relative="1" as="geometry">
            <mxPoint x="900" y="642" as="sourcePoint" />
            <mxPoint x="1020" y="640" as="targetPoint" />
          </mxGeometry>
        </mxCell>
        <mxCell id="iJmK3isDiLZy_JNT2nU3-79" value=":ApplyUI" style="html=1;whiteSpace=wrap;" parent="1" vertex="1">
          <mxGeometry x="1020" y="612" width="110" height="50" as="geometry" />
        </mxCell>
        <mxCell id="iJmK3isDiLZy_JNT2nU3-80" value=":ApplyCompany" style="html=1;whiteSpace=wrap;" parent="1" vertex="1">
          <mxGeometry x="1250" y="620" width="110" height="50" as="geometry" />
        </mxCell>
        <mxCell id="iJmK3isDiLZy_JNT2nU3-81" value="" style="endArrow=none;html=1;rounded=0;" parent="1" edge="1">
          <mxGeometry width="50" height="50" relative="1" as="geometry">
            <mxPoint x="1130" y="638" as="sourcePoint" />
            <mxPoint x="1250" y="636" as="targetPoint" />
          </mxGeometry>
        </mxCell>
        <mxCell id="iJmK3isDiLZy_JNT2nU3-82" value="지원" style="shape=umlFrame;whiteSpace=wrap;html=1;pointerEvents=0;width=90;height=30;" parent="1" vertex="1">
          <mxGeometry x="830" y="550" width="810" height="450" as="geometry" />
        </mxCell>
        <mxCell id="iJmK3isDiLZy_JNT2nU3-83" value=":RecruitmentInfo" style="html=1;whiteSpace=wrap;" parent="1" vertex="1">
          <mxGeometry x="1175" y="810" width="110" height="50" as="geometry" />
        </mxCell>
        <mxCell id="iJmK3isDiLZy_JNT2nU3-84" value="" style="endArrow=none;html=1;rounded=0;exitX=0.5;exitY=0;exitDx=0;exitDy=0;entryX=0.5;entryY=1;entryDx=0;entryDy=0;" parent="1" source="iJmK3isDiLZy_JNT2nU3-83" target="iJmK3isDiLZy_JNT2nU3-80" edge="1">
          <mxGeometry width="50" height="50" relative="1" as="geometry">
            <mxPoint x="1130" y="800" as="sourcePoint" />
            <mxPoint x="1271" y="670" as="targetPoint" />
          </mxGeometry>
        </mxCell>
        <mxCell id="iJmK3isDiLZy_JNT2nU3-85" value="" style="endArrow=classic;html=1;rounded=0;" parent="1" edge="1">
          <mxGeometry width="50" height="50" relative="1" as="geometry">
            <mxPoint x="1290" y="800" as="sourcePoint" />
            <mxPoint x="1290" y="800" as="targetPoint" />
          </mxGeometry>
        </mxCell>
        <mxCell id="iJmK3isDiLZy_JNT2nU3-86" value="" style="endArrow=classic;html=1;rounded=0;" parent="1" edge="1">
          <mxGeometry width="50" height="50" relative="1" as="geometry">
            <mxPoint x="1265" y="700" as="sourcePoint" />
            <mxPoint x="1230" y="772.5" as="targetPoint" />
          </mxGeometry>
        </mxCell>
        <mxCell id="iJmK3isDiLZy_JNT2nU3-88" value="" style="endArrow=classic;html=1;rounded=0;" parent="1" edge="1">
          <mxGeometry width="50" height="50" relative="1" as="geometry">
            <mxPoint x="1235" y="650" as="sourcePoint" />
            <mxPoint x="1150" y="650" as="targetPoint" />
            <Array as="points">
              <mxPoint x="1180" y="650" />
            </Array>
          </mxGeometry>
        </mxCell>
        <mxCell id="iJmK3isDiLZy_JNT2nU3-89" value="1 startInterface()" style="text;html=1;align=center;verticalAlign=middle;resizable=0;points=[];autosize=1;strokeColor=none;fillColor=none;" parent="1" vertex="1">
          <mxGeometry x="1140" y="650" width="110" height="30" as="geometry" />
        </mxCell>
        <mxCell id="iJmK3isDiLZy_JNT2nU3-90" value="" style="endArrow=classic;html=1;rounded=0;" parent="1" edge="1">
          <mxGeometry width="50" height="50" relative="1" as="geometry">
            <mxPoint x="920" y="630" as="sourcePoint" />
            <mxPoint x="1005" y="630" as="targetPoint" />
            <Array as="points">
              <mxPoint x="950" y="630" />
            </Array>
          </mxGeometry>
        </mxCell>
        <mxCell id="iJmK3isDiLZy_JNT2nU3-91" value="2 apply()" style="text;html=1;align=center;verticalAlign=middle;resizable=0;points=[];autosize=1;strokeColor=none;fillColor=none;" parent="1" vertex="1">
          <mxGeometry x="930" y="600" width="70" height="30" as="geometry" />
        </mxCell>
        <mxCell id="iJmK3isDiLZy_JNT2nU3-92" value="2.1 applyCompany()" style="text;html=1;align=center;verticalAlign=middle;resizable=0;points=[];autosize=1;strokeColor=none;fillColor=none;" parent="1" vertex="1">
          <mxGeometry x="1135" y="590" width="130" height="30" as="geometry" />
        </mxCell>
        <mxCell id="iJmK3isDiLZy_JNT2nU3-93" value="" style="endArrow=classic;html=1;rounded=0;" parent="1" edge="1">
          <mxGeometry width="50" height="50" relative="1" as="geometry">
            <mxPoint x="1150" y="625" as="sourcePoint" />
            <mxPoint x="1235" y="625" as="targetPoint" />
            <Array as="points">
              <mxPoint x="1180" y="625" />
            </Array>
          </mxGeometry>
        </mxCell>
        <mxCell id="bMXv3zJ_VvIDhunv8NQr-5" value="newApplyInfo:ApplyInfo&amp;nbsp;" style="html=1;whiteSpace=wrap;" parent="1" vertex="1">
          <mxGeometry x="1460" y="810" width="140" height="50" as="geometry" />
        </mxCell>
        <mxCell id="bMXv3zJ_VvIDhunv8NQr-6" value="" style="endArrow=none;html=1;rounded=0;exitX=0;exitY=0.5;exitDx=0;exitDy=0;" parent="1" source="bMXv3zJ_VvIDhunv8NQr-5" target="iJmK3isDiLZy_JNT2nU3-83" edge="1">
          <mxGeometry width="50" height="50" relative="1" as="geometry">
            <mxPoint x="1240" y="820" as="sourcePoint" />
            <mxPoint x="1315" y="680" as="targetPoint" />
          </mxGeometry>
        </mxCell>
        <mxCell id="bMXv3zJ_VvIDhunv8NQr-8" value="" style="endArrow=classic;html=1;rounded=0;" parent="1" edge="1">
          <mxGeometry width="50" height="50" relative="1" as="geometry">
            <mxPoint x="1305" y="820" as="sourcePoint" />
            <mxPoint x="1375" y="820" as="targetPoint" />
          </mxGeometry>
        </mxCell>
        <mxCell id="bMXv3zJ_VvIDhunv8NQr-9" value="2.1.1.1 ApplyInfo()" style="text;html=1;align=center;verticalAlign=middle;resizable=0;points=[];autosize=1;strokeColor=none;fillColor=none;" parent="1" vertex="1">
          <mxGeometry x="1285" y="780" width="120" height="30" as="geometry" />
        </mxCell>
        <mxCell id="9iNUODB7g-A9Gkp4yPjL-1" value=":AllRecruit???" style="html=1;whiteSpace=wrap;" vertex="1" parent="1">
          <mxGeometry x="1350" y="330" width="110" height="50" as="geometry" />
        </mxCell>
        <mxCell id="9iNUODB7g-A9Gkp4yPjL-3" value="2.1.1 *[For business_number == input]:&lt;br&gt;addNewApply()" style="text;html=1;align=center;verticalAlign=middle;resizable=0;points=[];autosize=1;strokeColor=none;fillColor=none;" vertex="1" parent="1">
          <mxGeometry x="1011" y="710" width="230" height="40" as="geometry" />
        </mxCell>
        <mxCell id="9iNUODB7g-A9Gkp4yPjL-4" value="&lt;p class=&quot;p1&quot;&gt;2.1.1.2&amp;nbsp;&lt;span style=&quot;background-color: initial;&quot;&gt;addApplyInfo()&lt;/span&gt;&lt;/p&gt;" style="text;whiteSpace=wrap;html=1;" vertex="1" parent="1">
          <mxGeometry x="1120" y="900" width="100" height="60" as="geometry" />
        </mxCell>
        <mxCell id="9iNUODB7g-A9Gkp4yPjL-5" value=":ApplyInfoCollection" style="html=1;whiteSpace=wrap;" vertex="1" parent="1">
          <mxGeometry x="1295" y="910" width="125" height="50" as="geometry" />
        </mxCell>
        <mxCell id="9iNUODB7g-A9Gkp4yPjL-8" value="" style="endArrow=none;html=1;rounded=0;exitX=0;exitY=0.5;exitDx=0;exitDy=0;entryX=0.369;entryY=1.056;entryDx=0;entryDy=0;entryPerimeter=0;" edge="1" parent="1" source="9iNUODB7g-A9Gkp4yPjL-5" target="iJmK3isDiLZy_JNT2nU3-83">
          <mxGeometry width="50" height="50" relative="1" as="geometry">
            <mxPoint x="1285" y="900" as="sourcePoint" />
            <mxPoint x="1175" y="900" as="targetPoint" />
          </mxGeometry>
        </mxCell>
        <mxCell id="9iNUODB7g-A9Gkp4yPjL-10" value="" style="endArrow=classic;html=1;rounded=0;" edge="1" parent="1">
          <mxGeometry width="50" height="50" relative="1" as="geometry">
            <mxPoint x="1197.5" y="877.5" as="sourcePoint" />
            <mxPoint x="1270" y="935" as="targetPoint" />
          </mxGeometry>
        </mxCell>
      </root>
    </mxGraphModel>
  </diagram>
</mxfile>
